<svg xmlns="http://www.w3.org/2000/svg" viewBox="0 0 64 64" role="img" aria-labelledby="title">
  <title>Logo Dappelle</title>
  <defs>
    <linearGradient id="gradient" x1="0%" y1="0%" x2="100%" y2="100%">
      <stop offset="0%" stop-color="#38bdf8" />
      <stop offset="100%" stop-color="#0ea5e9" />
    </linearGradient>
  </defs>
  <circle cx="32" cy="32" r="30" fill="url(#gradient)" />
  <path
    d="M38.5 18H28c-6.075 0-11 4.925-11 11v6c0 6.075 4.925 11 11 11h4l4.5 6c.75 1 2.5.5 2.5-.75V42c5-1.625 8-6 8-11v-2c0-6.075-4.925-11-11-11Z"
    fill="#f8fafc"
  />
  <path
    d="M28 23h10a6 6 0 0 1 6 6v2c0 3.314-2.686 6-6 6h-4v5.5L30.5 37H28a6 6 0 0 1-6-6v-2c0-3.314 2.686-6 6-6Z"
    fill="#0f172a"
    opacity="0.12"
  />
</svg>
